<svg xmlns="http://www.w3.org/2000/svg" xmlns:xlink="http://www.w3.org/1999/xlink" width="1449px" height="2115px" viewBox="0 0 1449 2115"><title>Group 27</title><g id="Page-1" stroke="none" stroke-width="1" fill="none" fill-rule="evenodd"><g id="Group-27"><rect id="Rectangle" fill="#FFFFFF" x="1" y="1" width="1447" height="2114"></rect><g id="Group-11-Copy" transform="translate(724.500000, 1057.500000) scale(-1, 1) translate(-724.500000, -1057.500000) " fill-rule="nonzero"><g id="Group" transform="translate(113.583053, 112.583053) scale(-1, -1) rotate(1800.000000) translate(-113.583053, -112.583053) translate(1.083053, 0.083053)"><rect id="Rectangle" fill="#FE0067" x="149.644594" y="0" width="37.4111485" height="37.4111485"></rect><rect id="Rectangle" fill="#FE0067" x="0" y="187.055743" width="37.4111485" height="37.4111485"></rect><rect id="Rectangle" fill="#FE0067" x="37.4111485" y="187.055743" width="37.4111485" height="37.4111485"></rect><rect id="Rectangle" fill="#FE0067" x="74.822297" y="187.055743" width="37.4111485" height="37.4111485"></rect><rect id="Rectangle" fill="#FFFFFF" x="149.644594" y="149.644594" width="37.4111485" height="37.4111485"></rect><rect id="Rectangle" fill="#FFFFFF" x="187.055743" y="112.233446" width="37.4111485" height="37.4111485"></rect><rect id="Rectangle" fill="#FFFFFF" x="187.055743" y="149.644594" width="37.4111485" height="37.4111485"></rect><rect id="Rectangle" fill="#FE0067" x="37.4111485" y="149.644594" width="37.4111485" height="37.4111485"></rect><rect id="Rectangle" fill="#FE0067" x="0" y="74.822297" width="37.4111485" height="37.4111485"></rect></g><g id="Group" transform="translate(0.000000, 1051.000000)"><rect id="Rectangle" fill="#F9FF00" x="1411" y="262" width="37.4111485" height="37.4111485"></rect><g id="Group-24" transform="translate(1.000000, 323.000000)"><rect id="Rectangle" fill="#1DF4F6" transform="translate(130.939020, 18.705574) scale(1, -1) translate(-130.939020, -18.705574) " x="112.233446" y="1.18660637e-12" width="37.4111485" height="37.4111485"></rect><rect id="Rectangle" fill="#FE0067" transform="translate(18.705574, 18.705574) scale(1, -1) translate(-18.705574, -18.705574) " x="-1.77635684e-13" y="2.77111667e-13" width="37.4111485" height="37.4111485"></rect><rect id="Rectangle" fill="#FE0067" transform="translate(56.116723, 56.116723) scale(1, -1) translate(-56.116723, -56.116723) " x="37.4111485" y="37.4111485" width="37.4111485" height="37.4111485"></rect></g><rect id="Rectangle-Copy-30" fill="#FE0067" x="1336.58885" y="2.77111667e-13" width="37.4111485" height="37.4111485"></rect><rect id="Rectangle" fill="#FE0067" transform="translate(19.294426, 416.705574) scale(1, -1) translate(-19.294426, -416.705574) " x="0.588851478" y="398" width="37.4111485" height="37.4111485"></rect></g><g id="Group" transform="translate(1334.500000, 2002.500000) scale(-1, 1) translate(-1334.500000, -2002.500000) translate(1222.000000, 1890.000000)"><rect id="Rectangle" fill="#F9FF00" x="149.644594" y="0" width="37.4111485" height="37.4111485"></rect><rect id="Rectangle" fill="#FE0067" x="0" y="187.055743" width="37.4111485" height="37.4111485"></rect><rect id="Rectangle" fill="#FFFFFF" x="112.233446" y="187.055743" width="37.4111485" height="37.4111485"></rect><rect id="Rectangle" fill="#FFFFFF" x="0" y="149.644594" width="37.4111485" height="37.4111485"></rect><rect id="Rectangle" fill="#FFFFFF" x="187.055743" y="112.233446" width="37.4111485" height="37.4111485"></rect><rect id="Rectangle" fill="#FFFFFF" x="37.4111485" y="187.055743" width="37.4111485" height="37.4111485"></rect><rect id="Rectangle" fill="#1DF4F6" x="37.4111485" y="149.644594" width="37.4111485" height="37.4111485"></rect></g><g id="Group" transform="translate(1260.000000, 585.000000)"><rect id="Rectangle" fill="#F9FF00" x="112.644594" y="0" width="37.4111485" height="37.4111485"></rect><rect id="Rectangle" fill="#FE0067" x="112.644594" y="187.055743" width="37.4111485" height="37.4111485"></rect><rect id="Rectangle" fill="#FE0067" x="150.055743" y="149.644594" width="37.4111485" height="37.4111485"></rect><rect id="Rectangle" fill="#1DF4F6" x="0.411148522" y="149.644594" width="37.4111485" height="37.4111485"></rect></g></g></g></g></svg>