<svg xmlns="http://www.w3.org/2000/svg" xmlns:xlink="http://www.w3.org/1999/xlink" width="51px" height="52px" viewBox="0 0 51 52"><title>Fill 4</title><g id="Page-1" stroke="none" stroke-width="1" fill="none" fill-rule="evenodd"><g id="Artboard" transform="translate(-115.000000, -978.000000)" fill="#000000" stroke="#000000" stroke-width="0.5"><path d="M165,1004.02421 C165,1000.23932 163.306885,996.67948 160.466284,994.278102 C160.575235,993.671814 160.630002,993.054588 160.630002,992.42934 C160.630002,987.711759 157.428375,983.612717 152.983455,982.37418 C151.356937,980.263622 148.835155,979 146.111538,979 C143.984373,979 142.020342,979.754031 140.5,981.038655 C138.979658,979.754031 137.015627,979 134.888462,979 C132.164845,979 129.643063,980.263622 128.016545,982.37418 C123.571625,983.612717 120.369998,987.711759 120.369998,992.42934 C120.369998,993.054588 120.424765,993.671814 120.533716,994.278102 C117.693115,996.67948 116,1000.23932 116,1004.02421 C116,1006.54095 116.743814,1008.98448 118.120739,1011.06164 C117.916858,1011.8797 117.814187,1012.72095 117.814187,1013.57722 C117.814187,1017.77602 120.329981,1021.51482 124.093887,1023.15021 C125.736762,1026.66017 129.316795,1029 133.282683,1029 C136.104152,1029 138.660108,1027.84314 140.5,1025.97906 C142.339745,1027.84314 144.895702,1029 147.717317,1029 C151.683205,1029 155.263238,1026.66017 156.906113,1023.15021 C160.670019,1021.51482 163.185813,1017.77602 163.185813,1013.57722 C163.185813,1012.72095 163.083142,1011.8797 162.879261,1011.06164 C164.256186,1008.98448 165,1006.54095 165,1004.02421 Z M133.282683,1026.08305 C129.982913,1026.08305 127.202337,1023.87055 126.34227,1020.85048 C126.341248,1020.85019 126.340079,1020.8499 126.338911,1020.84961 C126.333507,1020.83225 126.329126,1020.8146 126.322846,1020.79754 C125.727123,1019.15938 125.928667,1017.62798 126.890528,1016.48483 C127.879115,1015.30945 129.495994,1014.7227 131.009326,1014.99092 C132.481619,1015.25111 133.620488,1016.29683 134.216065,1017.9347 C134.422575,1018.50234 135.050282,1018.79578 135.61957,1018.58956 C136.188129,1018.38333 136.481682,1017.75575 136.275172,1017.18782 C135.819362,1015.9347 135.104611,1014.90355 134.202045,1014.14865 C135.304694,1013.66721 136.260567,1012.92718 136.784728,1012.0273 C137.013874,1011.63453 136.880534,1011.13063 136.486793,1010.9015 C136.093637,1010.6731 135.588462,1010.80641 135.359754,1011.19947 C134.835301,1012.09935 133.48598,1012.81298 132.186167,1013.03379 C131.928542,1012.95109 131.663322,1012.88473 131.391237,1012.8366 C129.121093,1012.43552 126.69614,1013.31484 125.213186,1015.07726 C124.140476,1016.35226 123.670499,1017.95804 123.832464,1019.65643 C121.955331,1018.28853 120.735114,1016.07544 120.735114,1013.57722 C120.735114,1012.49138 120.967327,1011.46039 121.381953,1010.52813 C119.851241,1008.79328 118.920926,1006.51791 118.920926,1004.02421 C118.920926,1001.15802 120.148446,998.579143 122.106489,996.780844 C122.649489,997.914078 123.400313,998.860336 124.331358,999.588699 C121.92802,1002.28483 122.551346,1005.57019 124.486167,1007.50238 C125.539015,1008.55379 126.993637,1009.21798 128.53574,1009.21798 C129.940997,1009.21798 131.418986,1008.66653 132.732673,1007.35478 C133.160442,1006.92745 133.160442,1006.23497 132.732673,1005.80778 C132.304903,1005.38074 131.611475,1005.38074 131.183559,1005.80778 C129.354475,1007.63452 127.279595,1007.19814 126.035135,1005.95523 C124.790528,1004.71246 124.353411,1002.6407 126.182933,1000.81353 C126.220613,1000.77604 126.25362,1000.73579 126.284728,1000.69451 C127.21811,1001.05403 128.218965,1001.23459 129.232381,1001.23459 C130.329627,1001.23459 131.441477,1001.02325 132.496808,1000.6003 C133.05821,1000.37496 133.33044,999.7379 133.105091,999.177409 C132.879595,998.616771 132.241519,998.344766 131.680409,998.5701 C130.080033,999.211829 128.245546,999.196223 126.773253,998.528388 C125.479428,997.941935 124.497997,996.885416 123.91571,995.462237 C123.919654,995.459904 123.923451,995.457716 123.927248,995.455382 C123.519049,994.529397 123.290924,993.506131 123.290924,992.42934 C123.290924,988.621701 126.124515,985.476793 129.800355,984.977703 C130.766305,983.157527 132.681995,981.916949 134.888462,981.916949 C136.597496,981.916949 138.131859,982.660916 139.185583,983.842572 L139.185583,990.048818 C138.500188,991.743711 136.914417,992.522828 135.338869,992.522828 C133.248946,992.522828 131.140038,991.152591 131.140038,988.091254 C131.140038,987.487008 130.64976,986.997398 130.04469,986.997398 C129.439766,986.997398 128.949343,987.487008 128.949343,988.091254 C128.949343,990.641834 130.039286,992.1884 130.953682,993.036649 C132.117087,994.116211 133.674525,994.71054 135.338869,994.71054 C136.699583,994.71054 138.066576,994.291666 139.185583,993.472441 L139.185583,1023.02026 C137.879491,1024.87208 135.723409,1026.08305 133.282683,1026.08305 Z M160.264886,1013.57722 C160.264886,1016.41891 158.686418,1018.89146 156.357855,1020.17113 C156.132068,1019.45983 155.779512,1018.71323 155.308658,1017.98648 C154.257271,1016.36392 152.855811,1015.20254 151.30144,1014.62032 C152.446151,1013.38207 153.082474,1011.90391 153.149364,1010.30134 C153.17463,1009.69768 152.705091,1009.18779 152.100751,1009.16271 C151.49831,1009.1312 150.98598,1009.60638 150.960714,1010.21018 C150.907407,1011.48664 150.329501,1012.619 149.243063,1013.57576 C147.773691,1014.86986 145.772418,1015.45865 144.894388,1015.38325 C144.292531,1015.33482 143.761798,1015.77981 143.71112,1016.38157 C143.660588,1016.98378 144.10822,1017.51276 144.710953,1017.56323 C144.810995,1017.57183 144.916003,1017.57577 145.025829,1017.57577 C146.09854,1017.57577 147.614938,1017.17382 149.045462,1016.37282 C149.086793,1016.37938 149.128709,1016.38391 149.1715,1016.38595 C151.481807,1016.48221 152.946797,1018.36831 153.469351,1019.17499 C154.073983,1020.10812 154.348696,1020.95214 154.432527,1021.51132 C153.378948,1024.18762 150.770999,1026.08305 147.717317,1026.08305 C145.276591,1026.08305 143.120509,1024.87208 141.814417,1023.02026 L141.814417,1008.82463 C142.411454,1009.16927 143.037117,1009.39183 143.662925,1009.48547 C143.438452,1010.29915 143.449551,1011.12683 143.702066,1011.92477 C143.849572,1012.39104 144.281139,1012.6893 144.746151,1012.6893 C144.855393,1012.6893 144.966681,1012.67282 145.076507,1012.63825 C145.653244,1012.45623 145.973232,1011.84192 145.790966,1011.26554 C145.607532,1010.68565 145.686397,1010.07775 146.025662,1009.45819 C146.517546,1008.56036 147.395431,1007.93934 147.748571,1007.84381 C148.33261,1007.68659 148.678156,1007.08613 148.520426,1006.50274 C148.362842,1005.91935 147.760693,1005.57442 147.17753,1005.73194 C146.516962,1005.91002 145.649009,1006.46059 144.920822,1007.26727 C144.125162,1007.498 143.369518,1007.20237 142.871646,1006.9082 C142.377133,1006.61621 142.02633,1006.26545 141.814417,1005.98863 L141.814417,983.842572 C142.868141,982.660916 144.402504,981.916949 146.111538,981.916949 C148.318005,981.916949 150.233695,983.157527 151.199645,984.977703 C154.875485,985.476793 157.709076,988.621701 157.709076,992.42934 C157.709076,993.295819 157.559232,994.126858 157.288608,994.901016 C156.496307,996.131094 155.139391,996.703982 153.789339,996.703982 C151.71738,996.703982 149.628187,995.355914 149.59226,992.350145 C150.978385,991.709437 152.170415,990.758366 152.837555,989.613755 C153.141769,989.091621 152.964615,988.422036 152.441769,988.11809 C151.919069,987.81429 151.248279,987.991202 150.944064,988.513336 C149.894429,990.314552 146.359086,991.554839 144.306843,990.840624 C143.735364,990.641834 143.111162,990.943446 142.912247,991.513856 C142.713186,992.084411 143.015064,992.707908 143.586397,992.906844 C144.236741,993.132908 144.953682,993.238356 145.696036,993.238356 C146.268537,993.238356 146.855644,993.174474 147.438222,993.056046 C147.633778,995.143998 148.587753,996.460417 149.404152,997.217803 C150.457146,998.194835 151.833632,998.772828 153.319362,998.8739 C153.341707,998.900736 153.36522,998.92728 153.390486,998.952366 C154.582808,1000.14336 154.30386,1001.48778 153.498414,1002.29198 C152.692969,1003.09618 151.34686,1003.37504 150.154246,1002.18405 C149.726476,1001.75701 149.033048,1001.75701 148.605132,1002.18405 C148.177363,1002.61124 148.177363,1003.30387 148.605132,1003.73106 C149.628771,1004.75345 150.781077,1005.18297 151.8773,1005.18268 C153.083935,1005.18268 154.222804,1004.66229 155.047382,1003.83913 C156.346902,1002.54123 156.89107,1000.46466 155.831504,998.571121 C156.935907,998.215399 157.950928,997.563899 158.722637,996.628725 C160.779407,998.432128 162.079074,1001.07561 162.079074,1004.02421 C162.079074,1006.51791 161.148759,1008.79328 159.618047,1010.52813 C160.032673,1011.46039 160.264886,1012.49138 160.264886,1013.57722 L160.264886,1013.57722 Z" id="Fill-4"></path></g></g></svg>