<?xml version="1.0" encoding="UTF-8"?>
<svg width="144px" height="145px" viewBox="0 0 144 145" version="1.1" xmlns="http://www.w3.org/2000/svg" xmlns:xlink="http://www.w3.org/1999/xlink">
    <title>Group</title>
    <g id="Page-1" stroke="none" stroke-width="1" fill="none" fill-rule="evenodd">
        <g id="Group" fill="#FE0067">
            <path d="M0.403448276,20.4551503 C0.403448276,9.60372745 9.20027917,0.806896552 20.0517517,0.806896552 L94.3965683,0.806896552 C105.24811,0.806896552 114.045021,9.6037771 114.045021,20.4551503 L114.045021,30.5447834 L124.134952,30.5447834 C134.986593,30.5447834 143.78251,39.3416938 143.78251,50.1931366 L143.78251,94.7999669 C143.78251,105.65131 134.986593,114.448221 124.134952,114.448221 L114.045021,114.448221 L114.045021,139.406897 C114.045021,141.339476 112.88011,143.082372 111.09451,143.822234 C109.30891,144.562097 107.253186,144.152938 105.885683,142.786428 L77.5479724,114.448221 L49.7896386,114.448221 C46.098869,114.448221 42.6422731,113.42731 39.6916634,111.656607 L38.3002262,113.047945 C36.9333186,114.415448 34.8776938,114.824607 33.0916966,114.084745 C31.3057986,113.344883 30.1413848,111.601986 30.1413848,109.669407 L30.1413848,84.7103338 L20.0517517,84.7103338 C9.20032883,84.7103338 0.403448276,75.9138207 0.403448276,65.06208 L0.403448276,20.4551503 Z M46.8829241,104.465545 C47.8029352,104.741628 48.7784607,104.8896 49.7896386,104.8896 L79.5276248,104.8896 C80.7951228,104.8896 82.0107807,105.393103 82.9070566,106.289876 L104.4864,127.869021 L104.4864,109.669407 C104.4864,107.029738 106.625545,104.8896 109.265214,104.8896 L124.134952,104.8896 C129.707255,104.8896 134.22389,100.372966 134.22389,94.7999669 L134.22389,50.1931366 C134.22389,44.6207338 129.707255,40.1034041 124.134952,40.1034041 L114.045021,40.1034041 L114.045021,65.06208 C114.045021,75.9137214 105.24811,84.7103338 94.3965683,84.7103338 L66.6382345,84.7103338 L46.8829241,104.465545 Z M104.4864,20.4551503 C104.4864,14.8827476 99.9687724,10.3655172 94.3965683,10.3655172 L20.0517517,10.3655172 C14.479349,10.3655172 9.96201931,14.8828469 9.96201931,20.4551503 L9.96201931,65.06208 C9.96201931,70.6345821 14.479349,75.1517131 20.0517517,75.1517131 L34.9206952,75.1517131 C37.5602648,75.1517131 39.7000055,77.2914538 39.7000055,79.9310234 L39.7000055,98.1306372 L61.2791503,76.5515917 C62.1754262,75.6552166 63.3910841,75.1517131 64.6585821,75.1517131 L94.3965683,75.1517131 C99.9687724,75.1517131 104.4864,70.6346814 104.4864,65.06208 L104.4864,20.4551503 Z" id="Shape"></path>
        </g>
    </g>
</svg>