<?xml version="1.0" encoding="UTF-8"?>
<svg width="50px" height="36px" viewBox="0 0 50 36" version="1.1" xmlns="http://www.w3.org/2000/svg" xmlns:xlink="http://www.w3.org/1999/xlink">
    <title>Group</title>
    <g id="Symbols" stroke="none" stroke-width="1" fill="none" fill-rule="evenodd">
        <g id="bi:cloud-arrow-down-fill" transform="translate(0.000000, -96.000000)" fill="#A1BDEA" fill-rule="nonzero">
            <g id="Group" transform="translate(0.000000, 96.250000)">
                <path d="M25,0 C20.875762,0.01293286 16.8921282,1.50042213 13.76875,4.19375 C11.375,6.25625 9.640625,8.94375 9.19375,11.640625 C3.95625,12.796875 0,17.359375 0,22.86875 C0,29.26875 5.3375,34.375 11.815625,34.375 L39.646875,34.375 C45.31875,34.375 50,29.90625 50,24.290625 C50,19.178125 46.11875,15.0125 41.14375,14.309375 C40.384375,6.246875 33.40625,0 25,0 Z M32.35625,21.41875 L26.10625,27.66875 C25.8131117,27.9626303 25.4150852,28.1277931 25,28.1277931 C24.5849148,28.1277931 24.1868883,27.9626303 23.89375,27.66875 L17.64375,21.41875 C17.2485249,21.0235249 17.094172,20.4474719 17.2388344,19.9075844 C17.3834968,19.3676969 17.8051969,18.9459968 18.3450844,18.8013344 C18.8849719,18.656672 19.4610249,18.8110249 19.85625,19.20625 L23.4375,22.790625 L23.4375,10.9375 C23.4375,10.0745551 24.1370551,9.375 25,9.375 C25.8629449,9.375 26.5625,10.0745551 26.5625,10.9375 L26.5625,22.790625 L30.14375,19.20625 C30.754715,18.595285 31.745285,18.595285 32.35625,19.20625 C32.967215,19.817215 32.967215,20.807785 32.35625,21.41875 L32.35625,21.41875 Z" id="Shape"></path>
            </g>
        </g>
    </g>
</svg>