<svg xmlns="http://www.w3.org/2000/svg" xmlns:xlink="http://www.w3.org/1999/xlink" width="54px" height="50px" viewBox="0 0 54 50"><title>ControlsBlackIcon</title><g id="Page-1" stroke="none" stroke-width="1" fill="none" fill-rule="evenodd"><g id="Group-5-Copy-6" transform="translate(-1347.000000, -426.000000)" stroke="#16161D" stroke-width="3.57142857"><g id="Group-Copy-10" transform="translate(50.000000, 0.000000)"><g id="ControlsBlackIcon" transform="translate(1299.000000, 426.000000)"><path d="M25,6.25 L25,0 M25,6.25 C23.3419643,6.25 21.7526786,6.90848214 20.5803571,8.080625 C19.4089286,9.25267857 18.75,10.8424107 18.75,12.5 C18.75,14.1575893 19.4089286,15.7473214 20.5803571,16.919375 C21.7526786,18.0915179 23.3419643,18.75 25,18.75 M25,6.25 C26.6580357,6.25 28.2473214,6.90848214 29.4196429,8.080625 C30.5910714,9.25267857 31.25,10.8424107 31.25,12.5 C31.25,14.1575893 30.5910714,15.7473214 29.4196429,16.919375 C28.2473214,18.0915179 26.6580357,18.75 25,18.75 M25,18.75 L25,50 M6.25,43.75 C7.90758929,43.75 9.49732143,43.0910714 10.669375,41.9196429 C11.8415179,40.7473214 12.5,39.1580357 12.5,37.5 C12.5,35.8419643 11.8415179,34.2526786 10.669375,33.0803571 C9.49732143,31.9089286 7.90758929,31.25 6.25,31.25 M6.25,43.75 C4.59241071,43.75 3.00267857,43.0910714 1.830625,41.9196429 C0.658482143,40.7473214 0,39.1580357 0,37.5 C0,35.8419643 0.658482143,34.2526786 1.830625,33.0803571 C3.00267857,31.9089286 4.59241071,31.25 6.25,31.25 M6.25,43.75 L6.25,50 M6.25,31.25 L6.25,0 M43.75,43.75 C45.4080357,43.75 46.9973214,43.0910714 48.1696429,41.9196429 C49.3410714,40.7473214 50,39.1580357 50,37.5 C50,35.8419643 49.3410714,34.2526786 48.1696429,33.0803571 C46.9973214,31.9089286 45.4080357,31.25 43.75,31.25 M43.75,43.75 C42.0919643,43.75 40.5026786,43.0910714 39.3303571,41.9196429 C38.1589286,40.7473214 37.5,39.1580357 37.5,37.5 C37.5,35.8419643 38.1589286,34.2526786 39.3303571,33.0803571 C40.5026786,31.9089286 42.0919643,31.25 43.75,31.25 M43.75,43.75 L43.75,50 M43.75,31.25 L43.75,0" id="Shape"></path></g></g></g></g></svg>