<svg xmlns="http://www.w3.org/2000/svg" xmlns:xlink="http://www.w3.org/1999/xlink" width="153px" height="126px" viewBox="0 0 153 126"><title>Group</title><g id="Page-1" stroke="none" stroke-width="1" fill="none" fill-rule="evenodd"><g id="Artboard" transform="translate(-150.000000, -1486.000000)" fill="#FE0067"><g id="Group" transform="translate(150.000000, 1486.000000)"><path d="M76.413161,10.7241366 C67.2917854,10.7241366 59.8980439,18.1180829 59.8980439,27.2391512 C59.8980439,36.3602195 67.2917854,43.7542683 76.413161,43.7542683 C85.5344341,43.7542683 92.9281756,36.3602195 92.9281756,27.2391512 C92.9281756,18.1180829 85.5344341,10.7241366 76.413161,10.7241366 Z M50.0382878,27.2391512 C50.0382878,12.6728341 61.8463317,0.864329268 76.413161,0.864329268 C90.9798878,0.864329268 102.788341,12.6728341 102.788341,27.2391512 C102.788341,41.8055707 90.9798878,53.6140244 76.413161,53.6140244 C61.8463317,53.6140244 50.0382878,41.8055707 50.0382878,27.2391512 Z M26.3748732,39.3174293 C21.2017024,39.3174293 17.0080537,43.5109756 17.0080537,48.6841463 C17.0080537,53.8574195 21.2017024,58.0509659 26.3748732,58.0509659 C31.5480439,58.0509659 35.7415902,53.8574195 35.7415902,48.6841463 C35.7415902,43.5109756 31.5479415,39.3174293 26.3748732,39.3174293 Z M7.14832829,48.6841463 C7.14832829,38.0656244 15.7563512,29.4576732 26.3748732,29.4576732 C36.9933951,29.4576732 45.6013463,38.0656244 45.6013463,48.6841463 C45.6013463,59.3029756 36.9932927,67.910722 26.3748732,67.910722 C15.7563512,67.910722 7.14832829,59.3029756 7.14832829,48.6841463 Z M126.451756,39.3174293 C121.278585,39.3174293 117.084732,43.5109756 117.084732,48.6841463 C117.084732,53.857522 121.277561,58.0509659 126.451756,58.0509659 C131.624927,58.0509659 135.817756,53.857522 135.817756,48.6841463 C135.817756,43.5109756 131.624927,39.3174293 126.451756,39.3174293 Z M107.224976,48.6841463 C107.224976,38.0657268 115.832927,29.4576732 126.451756,29.4576732 C137.070585,29.4576732 145.677512,38.0657268 145.677512,48.6841463 C145.677512,59.3028732 137.070585,67.910722 126.451756,67.910722 C115.832927,67.910722 107.224976,59.3028732 107.224976,48.6841463 Z M35.7415902,115.237756 L35.7415902,105.870732 C35.7415902,101.652395 36.3854195,97.5762439 37.5827268,93.7404146 C34.6345317,91.014 30.6993366,89.3556146 26.3748732,89.3556146 C17.2538049,89.3556146 9.8597561,96.7494585 9.8597561,105.870732 L9.8597561,115.237756 L35.7415902,115.237756 Z M46.0776878,115.237756 L106.748634,115.237756 L104.767463,93.7896878 C100.065717,82.7695024 89.1342439,75.0590195 76.413161,75.0590195 C63.692078,75.0590195 52.7605024,82.7696049 48.0586537,93.7895854 L46.0776878,115.237756 Z M117.084732,115.237756 L117.084732,105.870732 C117.084732,101.652395 116.44039,97.5761415 115.243902,93.7403122 C118.191073,91.0141024 122.12678,89.3556146 126.451756,89.3556146 C135.572927,89.3556146 142.965951,96.7493561 142.965951,105.870732 L142.965951,115.237756 L117.084732,115.237756 Z M111.013171,84.484639 C115.351463,81.3484683 120.685463,79.4958585 126.451756,79.4958585 C141.018585,79.4958585 152.826732,91.3040049 152.826732,105.870732 L152.826732,120.167122 C152.826732,122.889951 150.619171,125.097512 147.896341,125.097512 L4.92987805,125.097512 C2.20718195,125.097512 0,122.889951 0,120.167122 L0,105.870732 C0,91.3039024 11.8085561,79.4958585 26.3748732,79.4958585 C32.1405512,79.4958585 37.4748585,81.3485707 41.8128439,84.4847415 C48.9791707,72.9142537 61.7909122,65.1992634 76.413161,65.1992634 C91.0354098,65.1992634 103.846537,72.9142537 111.013171,84.484639 Z" id="Shape"></path></g></g></g></svg>