<svg xmlns="http://www.w3.org/2000/svg" xmlns:xlink="http://www.w3.org/1999/xlink" width="60px" height="60px" viewBox="0 0 60 60"><title>icon_explore_red</title><g id="icon_explore_red" stroke="none" stroke-width="1" fill="none" fill-rule="evenodd"><g id="ic:outline-explore" transform="translate(5.000000, 5.000000)" fill="#FE0067" fill-rule="nonzero" stroke="#FFFFFF"><path d="M25,0 C11.2,0 0,11.2 0,25 C0,38.8 11.2,50 25,50 C38.8,50 50,38.8 50,25 C50,11.2 38.8,0 25,0 Z M25,45 C13.975,45 5,36.025 5,25 C5,13.975 13.975,5 25,5 C36.025,5 45,13.975 45,25 C45,36.025 36.025,45 25,45 Z M11.25,38.75 L30.025,30.025 L38.75,11.25 L19.975,19.975 L11.25,38.75 Z M25,22.25 C26.525,22.25 27.75,23.475 27.75,25 C27.75,26.525 26.525,27.75 25,27.75 C23.475,27.75 22.25,26.525 22.25,25 C22.25,23.475 23.475,22.25 25,22.25 Z" id="Shape"></path></g></g></svg>