<svg xmlns="http://www.w3.org/2000/svg" xmlns:xlink="http://www.w3.org/1999/xlink" width="60px" height="60px" viewBox="0 0 60 60"><title>icon_no_funded_red</title><g id="icon_no_funded_red" stroke="none" stroke-width="1" fill="none" fill-rule="evenodd"><g id="Group" transform="translate(5.000000, 13.000000)"><rect id="Rectangle" stroke="#FE0067" stroke-width="2.83018868" x="1.41509434" y="1.41509434" width="47.1698113" height="31.1320755" rx="3.77358491"></rect><path d="M7.42740271,20.754717 L7.42740271,17.4657282 L10.611365,17.4657282 L10.611365,16.1280218 L7.42740271,16.1280218 L7.42740271,14.049602 L11.0093603,14.049602 L11.0093603,12.7063679 L5.76908903,12.7063679 L5.76908903,20.754717 L7.42740271,20.754717 Z M14.5065596,20.8652712 C15.4610112,20.8652712 16.2137014,20.6091539 16.76463,20.0969192 C17.3155587,19.5846846 17.591023,18.8881928 17.591023,18.007444 L17.591023,18.007444 L17.591023,12.7063679 L15.9271816,12.7063679 L15.9271816,18.0627211 C15.912441,19.0429688 15.4389004,19.5330926 14.5065596,19.5330926 C14.0606574,19.5330926 13.7114903,19.4124042 13.4590581,19.1710274 C13.2066259,18.9296506 13.0804098,18.5454746 13.0804098,18.0184994 L13.0804098,18.0184994 L13.0804098,12.7063679 L11.4220961,12.7063679 L11.4220961,18.0682488 C11.4331515,18.9379422 11.7150649,19.621536 12.2678361,20.1190301 C12.8206073,20.6165242 13.5668485,20.8652712 14.5065596,20.8652712 Z M20.1374558,20.754717 L20.1374558,15.4591686 L23.3656397,20.754717 L25.0239534,20.754717 L25.0239534,12.7063679 L23.3711675,12.7063679 L23.3711675,18.0129717 L20.1374558,12.7063679 L18.4791421,12.7063679 L18.4791421,20.754717 L20.1374558,20.754717 Z M28.4935142,20.754717 C29.1973762,20.7510318 29.8293779,20.5888856 30.3895195,20.2682783 C30.949661,19.947671 31.3835864,19.4962412 31.6912957,18.9139888 C31.999005,18.3317364 32.1528597,17.6665684 32.1528597,16.9184847 L32.1528597,16.9184847 L32.1528597,16.5481279 C32.1528597,15.8000442 31.9962412,15.1321123 31.6830041,14.5443323 C31.3697671,13.9565522 30.9339991,13.5032798 30.3757002,13.184515 C29.8174012,12.8657503 29.1844782,12.7063679 28.476931,12.7063679 L28.476931,12.7063679 L26.0005159,12.7063679 L26.0005159,20.754717 L28.4935142,20.754717 Z M28.4603479,19.4225383 L27.6588296,19.4225383 L27.6588296,14.049602 L28.476931,14.049602 C29.1292011,14.049602 29.6248526,14.2605764 29.9638856,14.6825251 C30.3029186,15.1044738 30.4724351,15.7244988 30.4724351,16.5426002 L30.4724351,16.5426002 L30.4724351,16.9682341 C30.4650649,17.7568544 30.2900206,18.3630601 29.9473025,18.7868514 C29.6045843,19.2106427 29.1089328,19.4225383 28.4603479,19.4225383 L28.4603479,19.4225383 Z M38.28125,20.754717 L38.28125,19.4225383 L34.5445165,19.4225383 L34.5445165,17.2667305 L37.7284788,17.2667305 L37.7284788,15.9677182 L34.5445165,15.9677182 L34.5445165,14.049602 L38.2701946,14.049602 L38.2701946,12.7063679 L32.8862028,12.7063679 L32.8862028,20.754717 L38.28125,20.754717 Z M41.2754275,20.754717 C41.9792895,20.7510318 42.6112913,20.5888856 43.1714328,20.2682783 C43.7315743,19.947671 44.1654997,19.4962412 44.473209,18.9139888 C44.7809183,18.3317364 44.934773,17.6665684 44.934773,16.9184847 L44.934773,16.9184847 L44.934773,16.5481279 C44.934773,15.8000442 44.7781545,15.1321123 44.4649175,14.5443323 C44.1516804,13.9565522 43.7159124,13.5032798 43.1576135,13.184515 C42.5993146,12.8657503 41.9663915,12.7063679 41.2588443,12.7063679 L41.2588443,12.7063679 L38.7824292,12.7063679 L38.7824292,20.754717 L41.2754275,20.754717 Z M41.2422612,19.4225383 L40.4407429,19.4225383 L40.4407429,14.049602 L41.2588443,14.049602 C41.9111144,14.049602 42.4067659,14.2605764 42.7457989,14.6825251 C43.084832,15.1044738 43.2543485,15.7244988 43.2543485,16.5426002 L43.2543485,16.5426002 L43.2543485,16.9682341 C43.2469782,17.7568544 43.071934,18.3630601 42.7292158,18.7868514 C42.3864976,19.2106427 41.8908461,19.4225383 41.2422612,19.4225383 L41.2422612,19.4225383 Z" id="FUNDED" fill="#FE0067" fill-rule="nonzero"></path></g></g></svg>