<svg xmlns="http://www.w3.org/2000/svg" xmlns:xlink="http://www.w3.org/1999/xlink" width="60px" height="60px" viewBox="0 0 60 60"><title>icon_groupwork_red</title><g id="icon_groupwork_red" stroke="none" stroke-width="1" fill="none" fill-rule="evenodd"><g id="ion:people-outline" transform="translate(5.000000, 12.000000)" stroke="#FE0067" stroke-width="3.55113636"><path d="M41.2020597,8.41619318 C40.8769087,12.9294656 37.528853,16.40625 33.8778409,16.40625 C30.2268288,16.40625 26.8732244,12.9305753 26.5536222,8.41619318 C26.2207031,3.72092507 29.4799805,0.426136364 33.8778409,0.426136364 C38.2757013,0.426136364 41.5349787,3.80637429 41.2020597,8.41619318 Z" id="Path" stroke-linecap="round" stroke-linejoin="round"></path><path d="M33.8778409,23.5085227 C26.6457298,23.5085227 19.6910511,27.1007191 17.9487749,34.0964577 C17.717951,35.0219727 18.2983398,35.9375 19.2493786,35.9375 L48.507413,35.9375 C49.4584517,35.9375 50.0355114,35.0219727 49.8080167,34.0964577 C48.0657404,26.9886364 41.1110618,23.5085227 33.8778409,23.5085227 Z" id="Path"></path><path d="M18.7855114,10.407049 C18.5258345,14.0114524 15.8203125,16.850142 12.9039418,16.850142 C9.98757102,16.850142 7.27761009,14.0125621 7.02237216,10.407049 C6.75714666,6.65727095 9.39053622,3.97727273 12.9039418,3.97727273 C16.4173473,3.97727273 19.0507369,6.72607422 18.7855114,10.407049 Z" id="Path" stroke-linecap="round" stroke-linejoin="round"></path><path d="M19.4513494,23.7304688 C17.4482866,22.8127219 15.2421431,22.4598278 12.9039418,22.4598278 C7.13334517,22.4598278 1.5735973,25.3284801 0.180886009,30.9159712 C-0.00221946023,31.6550515 0.461647727,32.3863636 1.22070313,32.3863636 L13.6807528,32.3863636" id="Path" stroke-linecap="round"></path></g></g></svg>