<svg xmlns="http://www.w3.org/2000/svg" xmlns:xlink="http://www.w3.org/1999/xlink" width="60px" height="60px" viewBox="0 0 60 60"><title>icon_world_red</title><g id="icon_world_red" stroke="none" stroke-width="1" fill="none" fill-rule="evenodd" stroke-linecap="round" stroke-linejoin="round"><g id="Group" transform="translate(5.000000, 6.000000)" stroke="#FE0067" stroke-width="3.44827586"><path d="M0.152775862,22.2222414 L5.55555172,22.2222414 C7.02896552,22.2222414 8.44206897,22.8075 9.48396552,23.8493966 C10.5257759,24.8912931 11.1111207,26.3043103 11.1111207,27.7777586 L11.1111207,30.5555172 C11.1111207,32.0289655 11.6964655,33.442069 12.7382759,34.4839655 C13.7801724,35.5257759 15.1932759,36.1111207 16.6666379,36.1111207 C18.1400862,36.1111207 19.5531897,36.6964655 20.595,37.7382759 C21.6368966,38.7801724 22.2222414,40.1932759 22.2222414,41.6666379 L22.2222414,49.8472414 M13.8888793,2.59722414 L13.8888793,6.94448276 C13.8888793,8.7862069 14.6205172,10.5525862 15.9228448,11.8549138 C17.2251724,13.1572414 18.9915517,13.8888793 20.8333621,13.8888793 L22.2222414,13.8888793 C23.6956897,13.8888793 25.1087069,14.4742241 26.1506034,15.5160345 C27.1925,16.557931 27.7777586,17.9710345 27.7777586,19.4444828 C27.7777586,20.9178448 28.3631034,22.3309483 29.405,23.3728448 C30.4468103,24.4146552 31.8599138,25 33.3333621,25 C34.8067241,25 36.2198276,24.4146552 37.2617241,23.3728448 C38.3035345,22.3309483 38.8888793,20.9178448 38.8888793,19.4444828 C38.8888793,17.9710345 39.4742241,16.557931 40.5160345,15.5160345 C41.557931,14.4742241 42.9710345,13.8888793 44.4444828,13.8888793 L47.4,13.8888793 M33.3333621,48.5777586 L33.3333621,41.6666379 C33.3333621,40.1932759 33.9186207,38.7801724 34.9605172,37.7382759 C36.0024138,36.6964655 37.415431,36.1111207 38.8888793,36.1111207 L47.4,36.1111207 M50,25 C50,28.2830172 49.3533621,31.5339655 48.0969828,34.567069 C46.8406034,37.6002586 44.9991379,40.3562069 42.6776724,42.6776724 C40.3562069,44.9991379 37.6002586,46.8406034 34.567069,48.0969828 C31.5339655,49.3533621 28.2830172,50 25,50 C21.7169828,50 18.4660345,49.3533621 15.432931,48.0969828 C12.3997414,46.8406034 9.6437931,44.9991379 7.32232759,42.6776724 C5.00086207,40.3562069 3.15937931,37.6002586 1.90300862,34.567069 C0.646646552,31.5339655 0,28.2830172 0,25 C0,18.369569 2.63392241,12.0107759 7.32232759,7.32232759 C12.0107759,2.63392241 18.369569,0 25,0 C31.630431,0 37.9892241,2.63392241 42.6776724,7.32232759 C47.3661207,12.0107759 50,18.369569 50,25 Z" id="Shape"></path></g></g></svg>