<svg xmlns="http://www.w3.org/2000/svg" xmlns:xlink="http://www.w3.org/1999/xlink" width="60px" height="60px" viewBox="0 0 60 60"><title>icon_skills_red</title><g id="icon_skills_red" stroke="none" stroke-width="1" fill="none" fill-rule="evenodd"><g id="cib:skillshare" transform="translate(4.000000, 5.000000)" fill-rule="nonzero"><path d="M21.9640625,50.375 C17.5046875,49.796875 12.9140625,47.884375 9.5703125,45.2078125 C2.0421875,39.2015625 -1.375,29.7125 0.578125,20.2890625 C1.415625,16.2203125 3.596875,11.9390625 6.3890625,8.8546875 C8.44593009,6.53984588 10.9263934,4.63958931 13.696875,3.25625 C17.375,1.3921875 20.890625,0.5546875 25.040625,0.5546875 C28.01875,0.5546875 30.4125,0.9453125 33.1546875,1.88125 C40.4548314,4.38527624 46.1907415,10.1183034 48.6984375,17.4171875 C50.1640625,21.7140625 50.43125,26.2875 49.4953125,30.8203125 C48.746875,34.4015625 46.8171875,38.4296875 44.4421875,41.3421875 C43.465625,42.546875 41.21875,44.6953125 40.0390625,45.565625 C36.5098425,48.1867103 32.3592201,49.8441591 27.9953125,50.375 C26.709375,50.5375 23.209375,50.5296875 21.965625,50.375 L21.9640625,50.375 Z" id="Path" stroke="#FF0065" stroke-width="3"></path><path d="M20.1171875,39.9015625 C18.9489791,39.725434 17.8282376,39.3157177 16.821875,38.696875 C15.91875,38.11875 9.0984375,31.4375 8.765625,30.8109375 C8.3828125,30.0953125 9.05,28.7921875 10.003125,28.39375 L10.45,28.20625 L9.075,26.80625 C8.31875,26.0328125 7.6015625,25.2109375 7.4875,24.9828125 C7.21875,24.4625 7.2109375,23.346875 7.4625,22.85 C7.56875,22.646875 7.8203125,22.3375 8.015625,22.165625 C8.35,21.8890625 8.38125,21.790625 8.35,21.090625 C8.309375,20.471875 8.365625,20.228125 8.634375,19.7640625 C9.025,19.096875 9.83125,18.6484375 10.6203125,18.640625 C11.059375,18.640625 11.1734375,18.584375 11.3609375,18.2578125 C11.85,17.403125 13.2484375,17.09375 14.315625,17.615625 L14.89375,17.8921875 L15.178125,17.615625 C15.56875,17.2578125 16.35,16.940625 16.8625,16.940625 C17.8875,16.940625 19.3359375,18.1203125 19.3359375,18.95 C19.3359375,19.9421875 18.4328125,20.1140625 17.5375,19.2921875 C16.94375,18.7390625 16.6421875,18.68125 16.3984375,19.071875 C16.2765625,19.259375 16.56875,19.609375 18.31875,21.375 C20.06875,23.1328125 20.3859375,23.5078125 20.3859375,23.840625 C20.3572671,24.3693164 19.9306449,24.7891668 19.4015625,24.809375 C19.084375,24.809375 18.5640625,24.353125 16.1625,21.9609375 C13.7125,19.51875 13.265625,19.128125 13.0703125,19.2515625 C12.540625,19.5859375 12.7203125,19.8296875 15.584375,22.7015625 C17.1390625,24.2640625 18.4171875,25.646875 18.4171875,25.778125 C18.4171875,26.046875 18.1734375,26.54375 17.9703125,26.6734375 C17.8036898,26.7466137 17.6224129,26.7803023 17.440625,26.771875 C17.10625,26.7796875 16.59375,26.315625 13.86875,23.5984375 C11.134375,20.8796875 10.6453125,20.440625 10.45,20.5625 C9.9125,20.9046875 10.0921875,21.140625 13.209375,24.2734375 C14.9109375,25.975 16.334375,27.496875 16.375,27.659375 C16.4640625,27.953125 16.26875,28.465625 16.009375,28.64375 C15.8372578,28.7169462 15.6509087,28.7505852 15.4640625,28.7421875 C15.1296875,28.7421875 14.7078125,28.3765625 12.453125,26.121875 C10.2796888,23.9484375 9.775,23.5015625 9.4984375,23.5265625 C8.7171875,23.615625 8.99375,23.965625 13.0296875,28.0109375 C16.5296875,31.51875 16.9765625,32.015625 16.9765625,32.38125 C16.98373,32.6540194 16.851913,32.9117689 16.6265625,33.065625 C16,33.5625 15.75625,33.4484375 14.1765625,31.91875 C13.3703125,31.1453125 12.540625,30.396875 12.3203125,30.2578125 C11.921875,30.0140625 10.9125,29.9078125 10.725,30.103125 C10.659375,30.159375 12.1484375,31.73125 14.0296875,33.59375 C17.1625,36.69375 17.5203125,37.0125 18.440625,37.4515625 C20.1590867,38.3072954 22.1782321,38.3130727 23.9015625,37.4671875 C26.5296875,36.2140625 27.9875,33.1703125 27.2703125,30.4109375 C26.9125,29.0359375 26.4640625,28.3765625 24.6578125,26.5125 C22.575,24.3796875 22.09375,23.79375 21.58125,22.76875 C21.0109375,21.621875 20.7671875,20.50625 20.7671875,19.1140625 C20.7671875,17.6078125 20.921875,16.925 21.5890625,15.5171875 C22.2234375,14.175 23.55,12.7671875 24.8609375,12.0421875 C27.4328125,10.609375 30.81875,10.73125 33.275,12.3359375 C33.7640625,12.653125 35.5296875,14.3140625 37.7265625,16.51875 C40.990625,19.790625 41.3640625,20.2140625 41.3640625,20.5875 C41.3640625,21.475 40.6390625,22.459375 39.834375,22.6625 C39.5328125,22.74375 39.590625,22.825 40.9578125,24.2171875 C41.7546875,25.0234375 42.4953125,25.89375 42.609375,26.1625 C42.9921875,27.0828125 42.8203125,27.9765625 42.1203125,28.709375 C41.7625,29.084375 41.7140625,29.2140625 41.7046875,29.9625 C41.696875,30.621875 41.6234375,30.8984375 41.3625,31.2734375 C40.9443473,31.8923976 40.2529683,32.2712593 39.50625,32.290625 C39.0015625,32.290625 38.9046875,32.3390625 38.6515625,32.721875 C38.08125,33.6015625 36.6,33.909375 35.640625,33.340625 L35.1609375,33.05625 L34.81875,33.390625 C34.0625,34.115625 32.840625,34.2125 31.9140625,33.61875 C31.165625,33.146875 30.6125,32.4875 30.6125,32.071875 C30.6125,31.70625 31.1421875,31.103125 31.4671875,31.103125 C31.7765625,31.103125 32.1921875,31.346875 32.6640625,31.7875 C33.1359375,32.234375 33.54375,32.234375 33.6078125,31.7796875 C33.640625,31.5359375 33.25,31.071875 31.6703125,29.484375 C30.009375,27.8078125 29.6921875,27.425 29.6921875,27.1 C29.6884679,26.9185666 29.7219695,26.7382957 29.790625,26.5703125 C29.9703125,26.3015625 30.475,26.1140625 30.7828125,26.1953125 C30.9453125,26.2359375 32.3203125,27.50625 33.8265625,29.0109375 C35.340625,30.525 36.6671875,31.7609375 36.7890625,31.7609375 C37.1234375,31.7609375 37.3421875,31.4265625 37.1875,31.1421875 C37.1140625,31.0125 35.8359375,29.7015625 34.3546875,28.2203125 C32.0359375,25.909375 31.6609375,25.478125 31.6609375,25.1359375 C31.6533417,24.9516778 31.6869719,24.7680462 31.759375,24.5984375 C31.8984375,24.3953125 32.3859375,24.1515625 32.6625,24.1515625 C32.784375,24.1515625 34.3140625,25.575 36.0640625,27.3171875 C39.2703125,30.5078125 39.50625,30.6859375 39.840625,30.1578125 C39.9625,29.9625 39.5234375,29.465625 36.8046875,26.7390625 C33.996875,23.9234375 33.6234375,23.5 33.6234375,23.134375 C33.6234375,22.8828125 33.7375,22.621875 33.9171875,22.459375 C34.5109375,21.8984375 34.690625,22.0125 37.5796875,24.884375 C40.3140625,27.6109375 40.5578125,27.7890625 40.8921875,27.26875 C41.0140625,27.0734375 40.4609375,26.471875 37.0671875,23.06875 C33.371875,19.3578125 33.1046875,19.05625 33.1046875,18.625 C33.1046875,17.9734375 33.4796875,17.6640625 34.203125,17.7140625 C34.3328125,17.721875 35.1140625,18.38125 35.9203125,19.1703125 C36.734375,19.959375 37.6125,20.7 37.8734375,20.8140625 C38.3859375,21.025 38.9796875,21.0578125 39.2328125,20.8953125 C39.4765625,20.740625 32.721875,14.0921875 31.84375,13.628125 C30.3219703,12.8067761 28.5285429,12.6503671 26.8875556,13.1958837 C25.2465684,13.7414002 23.9037242,14.9404061 23.1765625,16.509375 C22.753125,17.4125 22.696875,17.68125 22.6390625,18.8453125 C22.590625,19.94375 22.63125,20.2859375 22.8671875,20.9859375 C23.290625,22.23125 23.65625,22.74375 25.553125,24.68125 C27.6046875,26.78125 27.9953125,27.2609375 28.515625,28.384375 C29.98125,31.509375 29.3625,35.1234375 26.9453125,37.53125 C25.10625,39.378125 22.6,40.240625 20.1171875,39.9 L20.1171875,39.9015625 Z" id="Path" fill="#FE0067"></path></g></g></svg>