<svg xmlns="http://www.w3.org/2000/svg" xmlns:xlink="http://www.w3.org/1999/xlink" width="60px" height="60px" viewBox="0 0 60 60"><title>icon_24_7_red</title><g id="icon_24_7_red" stroke="none" stroke-width="1" fill="none" fill-rule="evenodd"><path d="M32.5,5.125 L32.5,10.175 C42.375,11.4 50,19.8 50,30 C50,38.025 45.2,45 38.2,48.2 L32.5,42.5 L32.5,55 L45,55 L41.95,51.95 C49.775,47.675 55,39.4 55,30 C55,17.05 45.125,6.375 32.5,5.125 M27.5,5 C22.625,5.5 18,7.4 14.2,10.525 L17.75,14.075 C20.587748,11.887452 23.9495788,10.4823792 27.5,10 L27.5,5 M10.5,14.2 C7.4,18 5.5,22.625 5,27.5 L10,27.5 C10.475,23.95 11.875,20.575 14.075,17.75 L10.5,14.2 M15,20 L15,25 L22.5,25 L22.5,27.5 L20,27.5 C17.25,27.5 15,29.75 15,32.5 L15,40 L27.5,40 L27.5,35 L20,35 L20,32.5 L22.5,32.5 C25.275,32.5 27.5,30.275 27.5,27.5 L27.5,25 C27.5,22.2385763 25.2614237,20 22.5,20 L15,20 M30,20 L30,32.5 L37.5,32.5 L37.5,40 L42.5,40 L42.5,32.5 L45,32.5 L45,27.5 L42.5,27.5 L42.5,20 L37.5,20 L37.5,27.5 L35,27.5 L35,20 L30,20 M5,32.5 C5.5,37.375 7.425,42 10.55,45.8 L14.1,42.25 C11.9050241,39.4139932 10.4914201,36.0523739 10,32.5 L5,32.5 M17.775,45.925 L14.2,49.475 C17.9984499,52.5763173 22.6221474,54.4970639 27.5,55 L27.5,50 C23.9541922,49.5285914 20.5976872,48.1221381 17.775,45.925 Z" id="Shape" stroke="#FFFFFF" fill="#FE0067" fill-rule="nonzero"></path></g></svg>