<svg width="156" height="120" viewBox="0 0 156 120" fill="none" xmlns="http://www.w3.org/2000/svg">
<path d="M93 7.54496C93 0.997459 85.2 -2.40754 80.4 2.04746L51.36 28.995C50.6673 29.6397 49.7564 29.9987 48.81 30H29.25C23.0368 30 18 35.0368 18 41.25V78.75C18 84.9632 23.0368 90 29.25 90H48.8025C49.7478 89.9992 50.6586 90.3554 51.3525 90.9975L80.4 117.952C85.2 122.4 93 119.002 93 112.455V7.54496Z" fill="#FE0067"/>
<path d="M117.405 19.7025C118.147 19.04 119.122 18.6995 120.115 18.7558C121.108 18.812 122.038 19.2605 122.7 20.0025C143.069 42.7777 143.069 77.2222 122.7 99.9975C121.81 101.01 120.445 101.467 119.125 101.195C117.805 100.922 116.733 99.9621 116.316 98.68C115.9 97.3978 116.204 95.9909 117.113 94.9949C134.936 75.0663 134.936 44.9261 117.113 24.9975C115.731 23.4545 115.862 21.0839 117.405 19.7025Z" fill="#FE0067"/>
<path d="M108.593 81.9974C107.73 81.5014 107.1 80.6829 106.841 79.7221C106.582 78.7614 106.716 77.7372 107.213 76.8749C113.244 66.4335 113.244 53.5664 107.213 43.1249C106.474 41.9625 106.431 40.4885 107.103 39.2856C107.774 38.0828 109.051 37.3449 110.428 37.3635C111.805 37.3821 113.062 38.1544 113.7 39.3749C121.074 52.1356 121.077 67.8616 113.708 80.6249C112.672 82.414 110.384 83.0278 108.593 81.9974Z" fill="#FE0067"/>
</svg>
