<svg xmlns="http://www.w3.org/2000/svg" xmlns:xlink="http://www.w3.org/1999/xlink" width="50px" height="50px" viewBox="0 0 50 50"><title>ic:outline-policy</title><g id="Symbols" stroke="none" stroke-width="1" fill="none" fill-rule="evenodd"><g id="ic:outline-policy"><rect id="ViewBox" x="0" y="0" width="50" height="50"></rect><path d="M25,2.08333333 L6.25,10.4166667 L6.25,22.9166667 C6.25,34.4791667 14.25,45.2916667 25,47.9166667 C35.75,45.2916667 43.75,34.4791667 43.75,22.9166667 L43.75,10.4166667 L25,2.08333333 Z M39.5833333,22.9166667 C39.5833333,26.7708333 38.5208333,30.5208333 36.7083333,33.7708333 L33.6875,30.75 C36.4166393,26.6208595 35.8590367,21.1406708 32.3541667,17.6458333 C28.2850332,13.5828013 21.6941335,13.5828013 17.625,17.6458333 C13.5619679,21.7149668 13.5619679,28.3058665 17.625,32.375 C21.1242529,35.8705788 26.5975726,36.4274826 30.7291667,33.7083333 L34.3125,37.2916667 C31.8333333,40.25 28.625,42.5208333 25,43.625 C16.625,41.0208333 10.4166667,32.3333333 10.4166667,22.9166667 L10.4166667,13.125 L25,6.64583333 L39.5833333,13.125 L39.5833333,22.9166667 L39.5833333,22.9166667 Z M25,31.25 C21.5416667,31.25 18.75,28.4583333 18.75,25 C18.75,21.5416667 21.5416667,18.75 25,18.75 C28.4583333,18.75 31.25,21.5416667 31.25,25 C31.25,28.4583333 28.4583333,31.25 25,31.25 Z" id="Shape" fill="#FE0067" fill-rule="nonzero"></path></g></g></svg>