<svg width="144" height="144" viewBox="0 0 144 144" fill="none" xmlns="http://www.w3.org/2000/svg">
<path fill-rule="evenodd" clip-rule="evenodd" d="M94.5 34.5C94.5 22.0734 84.4266 12 72 12C59.5734 12 49.5 22.0734 49.5 34.5C49.5 46.9266 59.5734 57 72 57C84.4266 57 94.5 46.9266 94.5 34.5ZM66.7477 68.5078C52.8422 59.9953 30.3187 57.6563 18.9844 57.0117C15.1758 56.7961 12 59.6977 12 63.3609V115.58C12 118.938 14.7164 121.739 18.2086 121.92C28.4414 122.456 49.1437 124.423 63.4523 131.63C65.6484 132.736 68.2523 131.229 68.2523 128.848V71.1938C68.25 70.0992 67.7086 69.0961 66.7477 68.5078ZM77.2547 68.5078C91.1578 59.9953 113.684 57.6539 125.016 57.0117C128.824 56.7961 132 59.6977 132.002 63.3609V115.584C132.002 118.943 129.286 121.744 125.794 121.927C115.563 122.463 94.8727 124.43 80.5664 131.63C78.3633 132.738 75.7523 131.229 75.7523 128.841V71.2336C75.7523 70.1391 76.2938 69.0961 77.2547 68.5078Z" fill="#FE0067"/>
</svg>
