<svg xmlns="http://www.w3.org/2000/svg" xmlns:xlink="http://www.w3.org/1999/xlink" width="120px" height="120px" viewBox="0 0 120 120"><title>ant-design:heart-filled</title><g id="Page-1" stroke="none" stroke-width="1" fill="none" fill-rule="evenodd"><g id="ant-design:heart-filled"><rect id="ViewBox" x="0" y="0" width="120" height="120"></rect><path d="M108.164062,33.234375 C106.593277,29.5973078 104.328357,26.3014323 101.496094,23.53125 C98.661703,20.7528042 95.3198793,18.5448136 91.6523438,17.0273438 C87.8493358,15.4475749 83.7704075,14.6389592 79.6523438,14.6483551 C73.875,14.6483551 68.2382813,16.2304688 63.3398438,19.21875 C62.1679688,19.9335938 61.0546875,20.71875 60,21.5742188 C58.9453125,20.71875 57.8320313,19.9335938 56.6601562,19.21875 C51.7617188,16.2304688 46.125,14.6483551 40.3476562,14.6483551 C36.1875,14.6483551 32.15625,15.4453125 28.3476562,17.0273438 C24.6679688,18.5507813 21.3515625,20.7421875 18.5039062,23.53125 C15.6679298,26.2983075 13.4024754,29.5949617 11.8359375,33.234375 C10.2070312,37.0195312 9.375,41.0390625 9.375,45.1757812 C9.375,49.078125 10.171875,53.1445312 11.7539062,57.28125 C13.078125,60.7382812 14.9765625,64.3242187 17.4023438,67.9453125 C21.2460938,73.6757812 26.53125,79.6523437 33.09375,85.7109375 C43.96875,95.7539062 54.7382812,102.691406 55.1953125,102.972656 L57.9726562,104.753906 C59.203125,105.539062 60.7851563,105.539062 62.015625,104.753906 L64.7929688,102.972656 C65.25,102.679688 76.0078125,95.7539062 86.8945313,85.7109375 C93.4570313,79.6523438 98.7421875,73.6757812 102.585938,67.9453125 C105.011719,64.3242188 106.921875,60.7382812 108.234375,57.28125 C109.816406,53.1445312 110.613403,49.078125 110.613403,45.1757813 C110.625,41.0390625 109.792969,37.0195313 108.164062,33.234375 Z" id="Path" fill="#FE0067" fill-rule="nonzero"></path></g></g></svg>