<svg width="96" height="128" viewBox="0 0 96 128" fill="none" xmlns="http://www.w3.org/2000/svg">
<path fill-rule="evenodd" clip-rule="evenodd" d="M48 104V88C52.8333 88 57.3125 86.8958 61.4375 84.6875C65.5625 82.4792 68.9375 79.5833 71.5625 76C74.1875 72.4167 76.25 68.4583 77.75 64.125C79.25 59.7917 80 55.4583 80 51.125C80 43.625 77.1458 37.2292 71.4375 31.9375C65.7292 26.6458 58.7917 24 50.625 24C44.625 24 38.7083 25.5 32.875 28.5C27.0417 31.5 22.5833 35.3333 19.5 40L8.875 20.875C13.9583 14.625 20.4375 9.58333 28.3125 5.75C36.1875 1.91667 44.0833 0 52 0C60 0 67.375 1.95833 74.125 5.875C80.875 9.79167 86.2083 15.125 90.125 21.875C94.0417 28.625 96 36 96 44C96 50.8333 94.625 57.875 91.875 65.125C89.125 72.375 85.5625 78.8333 81.1875 84.5C76.8125 90.1667 71.6667 94.8333 65.75 98.5C59.8333 102.167 53.9167 104 48 104ZM40 95.625V103.5C32.75 102.667 26.5 100.667 21.25 97.5C16 94.3333 11.8542 90.1042 8.8125 84.8125C5.77083 79.5208 3.54167 73.5417 2.125 66.875C0.708333 60.2083 0 52.5833 0 44C0 41.8333 0.291667 39.4583 0.875 36.875L16 52C16.0833 59.6667 16.9167 66.5208 18.5 72.5625C20.0833 78.6042 22.7083 83.75 26.375 88C30.0417 92.25 34.5833 94.7917 40 95.625ZM86.625 107.5C85.0417 105.167 82.6667 104 79.5 104C76.3333 104 73.2708 105.167 70.3125 107.5C67.3542 109.833 65.3958 112.667 64.4375 116C63.4792 119.333 63.7917 122.167 65.375 124.5C66.9583 126.833 69.3333 128 72.5 128C75.6667 128 78.7292 126.833 81.6875 124.5C84.6458 122.167 86.6042 119.333 87.5625 116C88.5208 112.667 88.2083 109.833 86.625 107.5Z" fill="#FE0067"/>
</svg>
