<svg xmlns="http://www.w3.org/2000/svg" xmlns:xlink="http://www.w3.org/1999/xlink" width="126px" height="126px" viewBox="0 0 126 126"><title>Group Copy 18</title><g id="Page-1" stroke="none" stroke-width="1" fill="none" fill-rule="evenodd"><g id="Artboard-Copy" transform="translate(-920.000000, -4249.000000)" fill="#FE0067"><g id="Group-Copy-18" transform="translate(920.000000, 4249.000000)"><path d="M18.0833,0.4375 C20.7412,0.4375 22.8958,2.59213 22.8958,5.25 L22.8958,13.2708 L30.9167,13.2708 C33.5745,13.2708 35.7292,15.4255 35.7292,18.0833 C35.7292,20.7412 33.5745,22.8958 30.9167,22.8958 L22.8958,22.8958 L22.8958,30.9167 C22.8958,33.5745 20.7412,35.7292 18.0833,35.7292 C15.4255,35.7292 13.2708,33.5745 13.2708,30.9167 L13.2708,22.8958 L5.25,22.8958 C2.59213,22.8958 0.4375,20.7412 0.4375,18.0833 C0.4375,15.4255 2.59213,13.2708 5.25,13.2708 L13.2708,13.2708 L13.2708,5.25 C13.2708,2.59213 15.4255,0.4375 18.0833,0.4375 Z M69.4167,0.4375 C71.488,0.4375 73.327,1.76291 73.9821,3.72795 L87.9246,45.5492 L122.44,58.494 C124.318,59.1984 125.562,60.994 125.562,63 C125.562,65.006 124.318,66.8016 122.44,67.506 L87.9246,80.4508 L73.9821,122.272 C73.327,124.237 71.488,125.562 69.4167,125.562 C67.3453,125.562 65.5063,124.237 64.8512,122.272 L50.9087,80.4508 L16.3934,67.506 C14.5151,66.8016 13.2708,65.006 13.2708,63 C13.2708,60.994 14.5151,59.1984 16.3934,58.494 L50.9087,45.5492 L64.8512,3.72795 C65.5063,1.76291 67.3453,0.4375 69.4167,0.4375 Z M69.4167,20.4665 L59.3136,50.7711 C58.8544,52.1487 57.7977,53.2452 56.4381,53.7551 L31.7879,63 L56.4381,72.2449 C57.7977,72.7548 58.8544,73.8513 59.3136,75.2289 L69.4167,105.534 L79.5197,75.2289 C79.9789,73.8513 81.0356,72.7548 82.3952,72.2449 L107.045,63 L82.3952,53.7551 C81.0356,53.2452 79.9789,52.1487 79.5197,50.7711 L69.4167,20.4665 Z M24.5,90.2708 C27.1579,90.2708 29.3125,92.4255 29.3125,95.0833 L29.3125,103.104 L37.3333,103.104 C39.9912,103.104 42.1458,105.259 42.1458,107.917 C42.1458,110.575 39.9912,112.729 37.3333,112.729 L29.3125,112.729 L29.3125,120.75 C29.3125,123.408 27.1579,125.562 24.5,125.562 C21.8421,125.562 19.6875,123.408 19.6875,120.75 L19.6875,112.729 L11.6667,112.729 C9.0088,112.729 6.85417,110.575 6.85417,107.917 C6.85417,105.259 9.0088,103.104 11.6667,103.104 L19.6875,103.104 L19.6875,95.0833 C19.6875,92.4255 21.8421,90.2708 24.5,90.2708 Z" id="Shape"></path></g></g></g></svg>