<?xml version="1.0" encoding="UTF-8"?>
<svg width="148px" height="96px" viewBox="0 0 148 96" version="1.1" xmlns="http://www.w3.org/2000/svg" xmlns:xlink="http://www.w3.org/1999/xlink">
    <title>TheWrdLogo</title>
    <g id="TheWrdLogo" stroke="none" stroke-width="1" fill="none" fill-rule="evenodd">
        <g id="Group" fill-rule="nonzero">
            <path d="M18.76,33.71 L13.57,33.71 L11.41,46.92 L5,46.92 L7.16,33.71 L0,33.71 L0,27.81 L8.12,27.81 L9.54,19.3 L2.42,19.3 L2.42,13.4 L10.51,13.4 L12.73,0 L19.11,0 L16.92,13.41 L22.11,13.41 L24.33,0 L30.74,0 L28.52,13.41 L35.96,13.41 L35.96,19.31 L27.55,19.31 L26.13,27.82 L33.51,27.82 L33.51,33.72 L25.16,33.72 L23,46.93 L16.6,46.93 L18.76,33.71 Z M14.53,27.81 L19.72,27.81 L21.14,19.3 L15.95,19.3 L14.53,27.81 Z" id="Shape" fill="#FFFFFF"></path>
            <polygon id="Path" fill="#FFFFFF" points="70.8 8.74953 56.72 8.74953 49.99 46.9395 38.67 46.9395 45.4 8.74953 31.58 8.74953 33.12 0.0195312 72.34 0.0195312"></polygon>
            <polygon id="Path" fill="#FFFFFF" points="104.09 46.9395 92.85 46.9395 96.31 27.3495 79.64 27.3495 76.18 46.9395 64.87 46.9395 73.14 0.0195312 84.45 0.0195312 81.16 18.6495 97.82 18.6495 101.11 0.0195312 112.36 0.0195312"></polygon>
            <polygon id="Path" fill="#FFFFFF" points="139.9 27.0198 122.11 27.0198 120.13 38.2298 141.14 38.2298 139.61 46.9298 107.29 46.9298 115.56 0.00976562 147.95 0.00976562 146.41 8.73977 125.33 8.73977 123.58 18.6298 141.37 18.6298"></polygon>
            <polygon id="Path" fill="#FFFFFF" points="45.26 77.7601 50.64 48.3401 61.85 48.3401 51.9 95.2601 40.17 95.2601 33.89 68.5101 27.73 95.2601 16.03 95.2601 6.03998 48.3301 17.29 48.3301 22.67 77.7501 29.12 48.3301 38.72 48.3301"></polygon>
            <path d="M79.75,78.6601 L73.63,78.6601 L73.63,95.2601 L62.31,95.2601 L62.31,48.3301 L80.78,48.3301 C86.34,48.3301 90.69,49.5601 93.83,52.0301 C96.97,54.5001 98.54,57.9901 98.54,62.4901 C98.54,65.7501 97.88,68.4601 96.56,70.6001 C95.24,72.7501 93.17,74.4801 90.36,75.8101 L100.16,94.7601 L100.16,95.2401 L88.03,95.2401 L79.75,78.6601 Z M73.63,69.9601 L80.78,69.9601 C82.93,69.9601 84.55,69.3901 85.63,68.2601 C86.71,67.1301 87.26,65.5501 87.26,63.5301 C87.26,61.5101 86.71,59.9201 85.62,58.7701 C84.52,57.6201 82.91,57.0401 80.79,57.0401 L73.64,57.0401 L73.64,69.9601 L73.63,69.9601 Z" id="Shape" fill="#FFFFFF"></path>
            <path d="M101.41,95.2601 L101.41,48.3301 L116.52,48.3301 C120.67,48.3301 124.39,49.2701 127.7,51.1501 C131.01,53.0301 133.59,55.6801 135.45,59.1101 C137.31,62.5401 138.25,66.3801 138.27,70.6301 L138.27,72.7901 C138.27,77.0901 137.36,80.9401 135.55,84.3401 C133.73,87.7501 131.18,90.4101 127.88,92.3301 C124.58,94.2501 120.9,95.2301 116.84,95.2501 L101.41,95.2501 L101.41,95.2601 Z M112.72,57.0701 L112.72,86.5601 L116.65,86.5601 C119.89,86.5601 122.39,85.4001 124.13,83.1001 C125.87,80.7901 126.74,77.3601 126.74,72.8001 L126.74,70.7701 C126.74,66.2401 125.87,62.8201 124.13,60.5201 C122.39,58.2201 119.85,57.0701 116.52,57.0701 L112.72,57.0701 Z" id="Shape" fill="#FFFFFF"></path>
            <path d="M141.37,95.2598 C144.131,95.2598 146.37,93.0212 146.37,90.2598 C146.37,87.4983 144.131,85.2598 141.37,85.2598 C138.609,85.2598 136.37,87.4983 136.37,90.2598 C136.37,93.0212 138.609,95.2598 141.37,95.2598 Z" id="Path" fill="#1DF4F6"></path>
        </g>
    </g>
</svg>