<?xml version="1.0" encoding="UTF-8"?>
<svg width="350px" height="350px" viewBox="0 0 350 350" version="1.1" xmlns="http://www.w3.org/2000/svg" xmlns:xlink="http://www.w3.org/1999/xlink">
    <title>uil-swatchbook</title>
    <g id="Symbols" stroke="none" stroke-width="1" fill="none" fill-rule="evenodd">
        <g id="uil-swatchbook" fill-rule="nonzero">
            <g id="Icon" transform="translate(29.000000, 29.000000)" fill="#FE0067">
                <path d="M73.0833333,204.333333 C65.0291807,204.333333 58.5,210.862514 58.5,218.916667 C58.5,226.970819 65.0291807,233.5 73.0833333,233.5 C81.1374859,233.5 87.6666667,226.970819 87.6666667,218.916667 C87.6666667,210.862514 81.1374859,204.333333 73.0833333,204.333333 Z M248.958333,146 L266.895833,128.0625 C283.955614,110.981476 283.955614,83.3101902 266.895833,66.2291667 L225.625,25.1041667 C208.543976,8.04438628 180.87269,8.04438628 163.791667,25.1041667 L146,43.0416667 C145.523504,19.2215985 126.074833,0.161901233 102.25,0.166665773 L43.9166667,0.166665773 C19.7542089,0.166665773 0.166666667,19.7542089 0.166666667,43.9166667 L0.166666667,248.083333 C0.166666667,272.245791 19.7542089,291.833333 43.9166667,291.833333 L248.083333,291.833333 C272.245791,291.833333 291.833334,272.245791 291.833334,248.083333 L291.833334,189.75 C291.838099,165.925167 272.778401,146.476496 248.958333,146 Z M116.833333,248.083333 C116.833333,256.137486 110.304153,262.666667 102.25,262.666667 L43.9166667,262.666667 C35.8625141,262.666667 29.3333333,256.137486 29.3333333,248.083333 L29.3333333,43.9166667 C29.3333333,35.8625141 35.8625141,29.3333333 43.9166667,29.3333333 L102.25,29.3333333 C110.304153,29.3333333 116.833333,35.8625141 116.833333,43.9166667 L116.833333,248.083333 Z M146,84.1666667 L184.5,45.6666667 C190.188046,40.0123642 199.374454,40.0123642 205.0625,45.6666667 L246.333333,87.6666667 C251.987636,93.3547129 251.987636,102.54112 246.333333,108.229167 L204.333333,150.229167 L146,207.833333 L146,84.1666667 Z M262.666667,248.083333 C262.666667,256.137486 256.137486,262.666667 248.083333,262.666667 L143.375,262.666667 C144.871031,258.344471 145.706815,253.821409 145.854167,249.25 L219.9375,175.166667 L248.083333,175.166667 C256.137486,175.166667 262.666667,181.695847 262.666667,189.75 L262.666667,248.083333 Z" id="Icon-Shape"></path>
            </g>
            <rect id="ViewBox" x="0" y="0" width="350" height="350"></rect>
        </g>
    </g>
</svg>