<svg xmlns="http://www.w3.org/2000/svg" xmlns:xlink="http://www.w3.org/1999/xlink" width="50px" height="35px" viewBox="0 0 50 35"><title>BlackUnionIcon</title><g id="Page-1" stroke="none" stroke-width="1" fill="none" fill-rule="evenodd"><g id="Group-5-Copy-6" transform="translate(-1436.000000, -434.000000)" fill="#16161D" fill-rule="nonzero"><g id="Group-Copy-10" transform="translate(50.000000, 0.000000)"><g id="BlackUnionIcon" transform="translate(1386.000000, 434.000000)"><path d="M13.9311404,0.560927193 C14.6735965,1.29582456 14.6796491,2.49340351 13.9447368,3.23580702 L6.83641228,10.4166667 L30.674386,10.4166667 C31.7189474,10.4166667 32.5657895,11.2635088 32.5657895,12.3080702 C32.5657895,13.3527193 31.7189474,14.1995614 30.674386,14.1995614 L6.83641228,14.1995614 L13.9447368,21.3804386 C14.6796491,22.122807 14.6735965,23.3204386 13.9311404,24.0552632 C13.1887719,24.7901754 11.9911404,24.7841228 11.2563158,24.0417544 L0.958403509,13.6387719 C0.228777193,12.9016667 0.228777193,11.7145614 0.958403509,10.9774561 L11.2563158,0.574504386 C11.9911404,-0.167891228 13.1887719,-0.173970175 13.9311404,0.560927193 Z M36.0688596,10.9638596 C35.3264035,11.6987719 35.3203509,12.8964035 36.0552632,13.6387719 L43.1635965,20.8196491 L19.325614,20.8196491 C18.2810526,20.8196491 17.4342105,21.6664912 17.4342105,22.7110526 C17.4342105,23.7557018 18.2810526,24.6025439 19.325614,24.6025439 L43.1635965,24.6025439 L36.0552632,31.7834211 C35.3203509,32.5257895 35.3264035,33.7233333 36.0688596,34.4582456 C36.8112281,35.1931579 38.0088596,35.1871053 38.7436842,34.4446491 L49.0415789,24.0417544 C49.7712281,23.3046491 49.7712281,22.1174561 49.0415789,21.3804386 L38.7436842,10.9774561 C38.0088596,10.2350877 36.8112281,10.2289474 36.0688596,10.9638596 Z" id="Shape"></path></g></g></g></g></svg>